<?xml version="1.0" encoding="iso-8859-1"?>
<!-- Generator: Adobe Illustrator 19.0.0, SVG Export Plug-In . SVG Version: 6.00 Build 0)  -->
<svg version="1.1" id="Layer_1" xmlns="http://www.w3.org/2000/svg" xmlns:xlink="http://www.w3.org/1999/xlink" x="0px" y="0px"
	 viewBox="0 0 409.481 409.481" style="enable-background:new 0 0 409.481 409.481;" xml:space="preserve">
<g>
	<polyline style="fill:#F7B239;" points="360.88,341.798 357.07,362.798 354.34,377.798 330.001,377.798 330.001,341.798 
		360.88,341.798 	"/>
	<polyline style="fill:#F7B239;" points="79.489,341.798 79.489,377.798 55.149,377.798 52.419,362.798 48.599,341.798 
		79.489,341.798 	"/>
	<polyline style="fill:#A17A36;" points="73.489,347.798 55.79,347.798 58.519,362.798 73.489,362.798 73.489,347.798 	"/>
	<polyline style="fill:#A17A36;" points="353.692,347.798 336.001,347.798 336.001,362.798 350.968,362.798 353.692,347.798 	"/>
	<rect x="6" y="229.304" style="fill:#F7B239;" width="397.48" height="112.494"/>
	<polyline style="fill:#666666;" points="333.264,50.681 333.264,178.302 76.213,178.302 76.213,50.681 333.264,50.681 	"/>
	<path style="fill:#F2F2F2;" d="M352.263,31.682v165.62H57.214V31.682H352.263 M333.263,178.302V50.681H76.213v127.621H333.263"/>
	<polyline style="fill:#F2F2F2;" points="251.74,229.304 157.74,229.304 170.336,197.304 239.144,197.304 251.74,229.304 	"/>
	<polyline style="fill:#9E9E9E;" points="235.058,203.304 174.422,203.304 170.077,214.342 239.403,214.342 235.058,203.304 	"/>
	<path style="fill:#333333;" d="M403.48,223.304H255.826l-7.873-20.002h104.31c3.313,0,6-2.686,6-6V31.682c0-3.313-2.687-6-6-6
		H57.214c-3.313,0-6,2.687-6,6v165.62c0,3.314,2.687,6,6,6h104.313l-7.873,20.002H6c-3.313,0-6,2.687-6,6v112.494
		c0,3.313,2.687,6,6,6h37.593l5.653,31.074c0.519,2.853,3.004,4.926,5.904,4.926h24.34c3.313,0,6-2.687,6-6v-30H324v30
		c0,3.313,2.687,6,6,6h24.34c2.9,0,5.385-2.074,5.904-4.928l5.645-31.073h37.592c3.313,0,6-2.687,6-6V229.304
		C409.48,225.99,406.793,223.304,403.48,223.304 M63.214,191.301V37.682h283.05v153.619H63.214 M242.93,223.304h-76.38l7.872-20
		h60.637L242.93,223.304 M73.489,371.798H60.156l-4.366-24h17.699V371.798 M349.333,371.798h-13.332v-24h17.691L349.333,371.798
		 M397.48,335.799H12v-44.248h385.48V335.799 M397.48,279.551H12v-44.247h385.48V279.551"/>
	<path style="fill:#333333;" d="M333.264,44.682H76.214c-3.313,0-6,2.687-6,6v127.619c0,3.313,2.687,6,6,6h257.05
		c3.313,0,6-2.687,6-6V50.682C339.264,47.368,336.577,44.682,333.264,44.682 M327.263,172.302H82.214V56.681h245.05v115.621"/>
	<path style="fill:#FFFFFF;" d="M358.453,255.571H65.74c-3.313,0-6-2.687-6-6s2.687-6,6-6h292.713c3.313,0,6,2.687,6,6
		S361.766,255.571,358.453,255.571z"/>
	<path style="fill:#FFFFFF;" d="M379.743,255.569c-0.391,0-0.79-0.04-1.181-0.11c-0.38-0.08-0.76-0.2-1.119-0.35
		c-0.36-0.15-0.71-0.33-1.03-0.55c-0.33-0.22-0.64-0.47-0.92-0.74c-0.271-0.28-0.521-0.59-0.74-0.92c-0.22-0.32-0.4-0.67-0.55-1.03
		s-0.271-0.74-0.351-1.13c-0.069-0.38-0.109-0.78-0.109-1.17c0-1.58,0.64-3.12,1.75-4.24c0.28-0.28,0.59-0.53,0.92-0.75
		c0.32-0.21,0.67-0.4,1.03-0.55c0.359-0.15,0.739-0.26,1.119-0.34c1.95-0.39,4.03,0.25,5.421,1.64c0.279,0.28,0.529,0.58,0.739,0.91
		c0.221,0.33,0.41,0.68,0.561,1.04c0.149,0.36,0.26,0.74,0.34,1.12c0.08,0.39,0.12,0.78,0.12,1.17s-0.04,0.79-0.12,1.17
		c-0.08,0.39-0.19,0.77-0.34,1.13s-0.34,0.71-0.561,1.03c-0.21,0.33-0.46,0.64-0.739,0.92
		C382.863,254.929,381.323,255.569,379.743,255.569z"/>
	<path style="fill:#FFFFFF;" d="M358.453,311.572H65.74c-3.313,0-6-2.687-6-6s2.687-6,6-6h292.713c3.313,0,6,2.687,6,6
		S361.766,311.572,358.453,311.572z"/>
	<path style="fill:#FFFFFF;" d="M379.743,311.569c-0.391,0-0.79-0.04-1.181-0.11c-0.38-0.08-0.76-0.2-1.119-0.35
		c-0.36-0.15-0.71-0.33-1.03-0.55c-0.33-0.22-0.64-0.47-0.92-0.74c-0.271-0.28-0.521-0.59-0.74-0.92c-0.22-0.32-0.4-0.67-0.55-1.03
		s-0.271-0.74-0.351-1.13c-0.069-0.38-0.109-0.78-0.109-1.17c0-1.58,0.64-3.12,1.75-4.24c0.28-0.28,0.59-0.53,0.92-0.75
		c0.32-0.21,0.67-0.4,1.03-0.55c0.359-0.15,0.739-0.26,1.119-0.34c0.78-0.15,1.58-0.15,2.351,0c0.38,0.08,0.76,0.19,1.12,0.34
		c0.359,0.15,0.71,0.34,1.04,0.55c0.33,0.22,0.63,0.47,0.91,0.75c0.279,0.28,0.529,0.58,0.739,0.91c0.221,0.33,0.41,0.68,0.561,1.04
		c0.149,0.36,0.26,0.74,0.34,1.12c0.08,0.39,0.12,0.78,0.12,1.17c0,1.58-0.641,3.13-1.76,4.25
		C382.863,310.929,381.323,311.569,379.743,311.569z"/>
	<polyline style="fill:#505050;" points="203.97,56.681 82.214,56.681 82.214,172.302 245.346,172.302 203.97,56.681 	"/>
	<polyline style="fill:#333333;" points="201.823,50.681 76.213,50.681 76.213,178.302 247.494,178.302 245.346,172.302 
		82.214,172.302 82.214,56.681 203.97,56.681 201.823,50.681 	"/>
	<path style="fill:#FFFFFF;" d="M311.512,164.571c-3.313,0-6-2.687-6-6v-64.09c0-3.313,2.687-6,6-6s6,2.687,6,6v64.09
		C317.512,161.885,314.826,164.571,311.512,164.571z"/>
	<path style="fill:#FFFFFF;" d="M311.512,79.418c-0.39,0-0.79-0.04-1.17-0.11c-0.39-0.08-0.76-0.2-1.13-0.35
		c-0.36-0.15-0.71-0.33-1.03-0.55c-0.33-0.22-0.64-0.47-0.909-0.74c-1.12-1.12-1.761-2.67-1.761-4.25s0.641-3.12,1.761-4.24
		c0.27-0.28,0.579-0.53,0.909-0.75c0.32-0.21,0.67-0.4,1.03-0.55c0.37-0.15,0.74-0.26,1.13-0.34c0.771-0.16,1.57-0.16,2.34,0
		c0.38,0.08,0.761,0.19,1.12,0.34c0.37,0.15,0.71,0.34,1.04,0.55c0.33,0.22,0.63,0.47,0.91,0.75c1.12,1.12,1.76,2.66,1.76,4.24
		c0,0.39-0.04,0.79-0.12,1.18c-0.08,0.38-0.189,0.76-0.34,1.12c-0.149,0.36-0.34,0.71-0.55,1.03c-0.22,0.33-0.47,0.64-0.75,0.92
		c-0.28,0.27-0.58,0.52-0.91,0.74s-0.67,0.4-1.04,0.55c-0.359,0.15-0.74,0.27-1.12,0.35
		C312.293,79.379,311.903,79.418,311.512,79.418z"/>
</g>
<g>
</g>
<g>
</g>
<g>
</g>
<g>
</g>
<g>
</g>
<g>
</g>
<g>
</g>
<g>
</g>
<g>
</g>
<g>
</g>
<g>
</g>
<g>
</g>
<g>
</g>
<g>
</g>
<g>
</g>
</svg>
