<?xml version="1.0" encoding="iso-8859-1"?>
<!-- Generator: Adobe Illustrator 19.0.0, SVG Export Plug-In . SVG Version: 6.00 Build 0)  -->
<svg version="1.1" id="Layer_1" xmlns="http://www.w3.org/2000/svg" xmlns:xlink="http://www.w3.org/1999/xlink" x="0px" y="0px"
	 viewBox="0 0 512 512" style="enable-background:new 0 0 512 512;" xml:space="preserve">
<g transform="translate(1 1)">
	<path style="fill:#FCC309;" d="M92.867,395.412c0-42.667,34.987-76.8,76.8-76.8H84.333c-41.813,0-76.8,34.133-76.8,76.8
		s34.987,76.8,76.8,76.8h85.333C127.853,472.212,92.867,437.225,92.867,395.412"/>
	<path style="fill:#FFFFFF;" d="M84.333,318.612h25.6c-41.813,0-76.8,34.133-76.8,76.8s34.987,76.8,76.8,76.8h-25.6
		c-41.813,0-76.8-34.133-76.8-76.8S42.52,318.612,84.333,318.612"/>
	<path style="fill:#FFDD09;" d="M425.667,472.212h-256c-41.813,0-76.8-34.133-76.8-76.8s34.987-76.8,76.8-76.8h256
		c42.667,0,76.8,34.133,76.8,76.8S468.333,472.212,425.667,472.212"/>
	<path style="fill:#FD9808;" d="M425.667,318.612h-25.6c42.667,0,76.8,34.133,76.8,76.8s-34.133,76.8-76.8,76.8h25.6
		c42.667,0,76.8-34.133,76.8-76.8S468.333,318.612,425.667,318.612"/>
	<path style="fill:#FCC309;" d="M92.867,395.412c0-42.667,34.987-76.8,76.8-76.8H127c-41.813,0-76.8,34.133-76.8,76.8
		s34.987,76.8,76.8,76.8h42.667C127.853,472.212,92.867,437.225,92.867,395.412"/>
	<path style="fill:#1CD759;" d="M425.667,318.612c23.893,0,45.227,11.093,59.733,29.013V37.012l-51.2,40.96
		c-21.333,17.067-34.133,42.667-34.133,70.827v169.813H425.667z"/>
	<path style="fill:#15A143;" d="M459.8,57.492v269.653c10.24,5.12,18.773,11.947,25.6,20.48V37.012L459.8,57.492z"/>
	<polygon style="fill:#1CD759;" points="58.733,165.012 75.8,207.678 75.8,318.612 109.933,318.612 109.933,207.678 127,165.012 
		109.933,113.812 75.8,113.812 	"/>
	<polygon style="fill:#FFFFFF;" points="75.8,165.012 92.867,113.812 75.8,113.812 58.733,165.012 75.8,207.678 75.8,318.612 
		92.867,318.612 92.867,207.678 	"/>
	<path style="fill:#1CD759;" d="M169.667,318.612h17.067H229.4h27.307l52.907-81.92c14.507-23.04,18.773-52.053,9.387-77.653
		l-21.333-62.293L153.453,320.318C158.573,319.465,164.547,318.612,169.667,318.612"/>
	<path style="fill:#15A143;" d="M318.147,159.038l-20.48-62.293L280.6,123.198l11.947,36.693c8.533,25.6,5.12,54.613-9.387,77.653
		l-52.053,81.067h25.6l52.907-81.92C324.12,213.652,327.533,185.492,318.147,159.038"/>
	<g>
		<path style="fill:#54C9FD;" d="M195.267,395.412c0,14.507-11.093,25.6-25.6,25.6c-14.507,0-25.6-11.093-25.6-25.6
			c0-14.507,11.093-25.6,25.6-25.6C184.173,369.812,195.267,380.905,195.267,395.412"/>
		<path style="fill:#54C9FD;" d="M451.267,395.412c0,14.507-11.093,25.6-25.6,25.6s-25.6-11.093-25.6-25.6
			c0-14.507,11.093-25.6,25.6-25.6S451.267,380.905,451.267,395.412"/>
	</g>
	<path d="M425.667,480.745h-256c-46.933,0-85.333-38.4-85.333-85.333s38.4-85.333,85.333-85.333h256
		c46.933,0,85.333,38.4,85.333,85.333S472.6,480.745,425.667,480.745z M169.667,327.145c-37.547,0-68.267,30.72-68.267,68.267
		s30.72,68.267,68.267,68.267h256c37.547,0,68.267-30.72,68.267-68.267s-30.72-68.267-68.267-68.267H169.667z"/>
	<path d="M485.4,356.159c-2.56,0-5.12-0.853-6.827-3.413c-12.8-16.213-32.427-25.6-52.907-25.6h-25.6
		c-5.12,0-8.533-3.413-8.533-8.533V148.798c0-29.867,13.653-58.027,36.693-76.8l51.2-40.96c2.56-1.707,5.973-2.56,9.387-0.853
		c3.413,0.853,5.12,3.413,5.12,6.827v310.613c0,3.413-2.56,6.827-5.973,7.68C487.107,355.305,486.253,356.159,485.4,356.159z
		 M408.6,310.078h17.067c18.773,0,36.693,5.973,51.2,17.067V54.932L439.32,84.798c-19.627,15.36-30.72,39.253-30.72,64V310.078z"/>
	<path d="M169.667,480.745H127c-46.933,0-85.333-38.4-85.333-85.333s38.4-85.333,85.333-85.333h42.667v17.067
		c-37.547,0-68.267,30.72-68.267,68.267s30.72,68.267,68.267,68.267V480.745z M117.613,327.998
		c-33.28,4.267-58.88,33.28-58.88,67.413s25.6,63.147,58.88,67.413c-20.48-15.36-33.28-40.107-33.28-67.413
		S97.133,343.358,117.613,327.998z"/>
	<path d="M169.667,480.745H84.333C37.4,480.745-1,442.345-1,395.412s38.4-85.333,85.333-85.333h85.333v17.067
		c-37.547,0-68.267,30.72-68.267,68.267s30.72,68.267,68.267,68.267V480.745z M84.333,327.145c-37.547,0-68.267,30.72-68.267,68.267
		s30.72,68.267,68.267,68.267h34.133c-20.48-15.36-34.133-40.107-34.133-68.267c0-28.16,13.653-52.907,34.133-68.267H84.333z"/>
	<path d="M109.933,327.145H75.8c-5.12,0-8.533-3.413-8.533-8.533V209.385l-16.213-40.96c-0.853-1.707-0.853-4.267,0-5.973
		l17.067-51.2c0.853-3.413,4.267-5.973,7.68-5.973h34.133c3.413,0,6.827,2.56,7.68,5.973l17.067,51.2
		c0.853,1.707,0.853,4.267,0,5.973l-16.213,40.96v109.227C118.467,323.732,115.053,327.145,109.933,327.145z M84.333,310.078H101.4
		v-102.4c0-0.853,0-2.56,0.853-3.413l16.213-40.107l-14.507-42.667H81.773l-14.507,42.667l16.213,40.107
		c0.853,0.853,0.853,2.56,0.853,3.413V310.078z"/>
	<path d="M153.453,328.852c-2.56,0-5.12-1.707-6.827-3.413c-1.707-2.56-1.707-6.827,0-9.387l143.36-223.573
		c1.707-2.56,5.12-4.267,8.533-4.267c3.413,0,5.973,2.56,6.827,5.973l21.333,62.293c9.387,29.013,5.973,59.733-10.24,85.333
		l-52.907,81.067c-1.707,2.56-4.267,4.267-6.827,4.267h-87.04c-4.267,0-9.387,0.853-14.507,1.707
		C155.16,328.852,154.307,328.852,153.453,328.852z M170.52,310.078h81.067l50.347-77.653c13.653-21.333,17.067-46.933,8.533-69.973
		l-15.36-45.227L170.52,310.078z"/>
	<path d="M297.667,438.078c-5.12,0-8.533-3.413-8.533-8.533v-68.267c0-5.12,3.413-8.533,8.533-8.533s8.533,3.413,8.533,8.533v68.267
		C306.2,434.665,302.787,438.078,297.667,438.078z"/>
	<path d="M331.8,403.945h-68.267c-5.12,0-8.533-3.413-8.533-8.533c0-5.12,3.413-8.533,8.533-8.533H331.8
		c5.12,0,8.533,3.413,8.533,8.533C340.333,400.532,336.92,403.945,331.8,403.945z"/>
	<path d="M169.667,429.545c-18.773,0-34.133-15.36-34.133-34.133s15.36-34.133,34.133-34.133s34.133,15.36,34.133,34.133
		S188.44,429.545,169.667,429.545z M169.667,378.345c-9.387,0-17.067,7.68-17.067,17.067s7.68,17.067,17.067,17.067
		s17.067-7.68,17.067-17.067S179.053,378.345,169.667,378.345z"/>
	<path d="M425.667,429.545c-18.773,0-34.133-15.36-34.133-34.133s15.36-34.133,34.133-34.133s34.133,15.36,34.133,34.133
		S444.44,429.545,425.667,429.545z M425.667,378.345c-9.387,0-17.067,7.68-17.067,17.067s7.68,17.067,17.067,17.067
		s17.067-7.68,17.067-17.067S435.053,378.345,425.667,378.345z"/>
	<path d="M442.733,190.612c-5.12,0-8.533-3.413-8.533-8.533v-34.133c0-5.12,3.413-8.533,8.533-8.533c5.12,0,8.533,3.413,8.533,8.533
		v34.133C451.267,187.198,447.853,190.612,442.733,190.612z"/>
	<path d="M263.533,233.278c-1.707,0-3.413-0.853-5.12-1.707c-4.267-2.56-5.12-7.68-2.56-11.947l17.067-25.6
		c2.56-4.267,7.68-5.12,11.947-2.56c4.267,2.56,5.12,7.68,2.56,11.947l-17.067,25.6
		C268.653,231.572,266.093,233.278,263.533,233.278z"/>
</g>
<g>
</g>
<g>
</g>
<g>
</g>
<g>
</g>
<g>
</g>
<g>
</g>
<g>
</g>
<g>
</g>
<g>
</g>
<g>
</g>
<g>
</g>
<g>
</g>
<g>
</g>
<g>
</g>
<g>
</g>
</svg>
